<svg version="1.1" id="Layer_1" xmlns="http://www.w3.org/2000/svg" xmlns:xlink="http://www.w3.org/1999/xlink" x="0px" y="0px"
	 width="100%" viewBox="0 0 250 225" enable-background="new 0 0 250 225" xml:space="preserve">
<path fill="#FEFEFE" opacity="1.000000" stroke="none" 
	d="
M145.000000,226.000000 
	C96.666672,226.000000 48.833340,226.000000 1.000006,226.000000 
	C1.000004,151.000000 1.000004,76.000015 1.000002,1.000016 
	C84.333321,1.000011 167.666641,1.000011 250.999969,1.000005 
	C250.999985,75.999985 250.999985,150.999969 251.000000,225.999969 
	C215.833328,226.000000 180.666672,226.000000 145.000000,226.000000 
M92.805092,43.558647 
	C90.869400,47.039566 88.933716,50.520489 86.529373,54.501541 
	C84.662743,57.959534 82.796112,61.417526 80.375893,65.274712 
	C78.231339,69.176422 76.086784,73.078125 73.405006,77.390800 
	C71.409485,81.157394 69.413963,84.923981 66.897331,89.045837 
	C65.248589,92.021614 63.599842,94.997391 61.413292,98.382233 
	C59.719692,101.506577 58.026089,104.630920 55.809761,108.072380 
	C53.813812,111.611916 51.817863,115.151451 49.260376,119.102890 
	C46.978210,123.330124 44.696049,127.557358 41.881824,132.100922 
	C39.889793,135.683350 37.897766,139.265778 35.350002,143.247177 
	C33.222965,147.137939 31.095928,151.028717 28.401117,155.296249 
	C25.071678,161.578690 21.742239,167.861145 17.993052,174.618927 
	C17.637569,175.366348 17.282087,176.113785 16.351377,177.258331 
	C10.649535,185.859970 10.385514,195.386414 15.825019,203.917786 
	C19.462658,207.422562 23.100298,210.927338 27.042816,214.780502 
	C27.292915,214.987534 27.580240,215.086044 28.538433,215.485687 
	C33.054768,215.807617 37.571106,216.129547 42.761875,216.849014 
	C50.191891,216.803238 57.621910,216.757477 65.971352,216.854172 
	C72.985451,216.799271 79.999550,216.744385 87.925087,216.865143 
	C92.287849,216.800415 96.650620,216.735672 101.915817,216.851974 
	C105.614609,216.784332 109.313400,216.716690 113.918991,216.836197 
	C117.940208,216.777634 121.961418,216.719086 126.885376,216.862183 
	C130.268738,216.789536 133.652100,216.716888 137.948410,216.819901 
	C142.965759,216.742172 147.983093,216.664459 153.916031,216.810226 
	C160.277008,216.713882 166.637970,216.617538 173.910797,216.765869 
	C179.407837,216.788223 184.906723,216.909592 190.401443,216.807480 
	C197.024078,216.684433 203.643173,216.371658 211.074905,216.396912 
	C215.566895,216.298752 220.100677,216.551971 224.541565,216.023987 
	C232.114563,215.123642 237.963135,211.418396 241.719955,203.707001 
	C246.270844,194.467880 246.410019,185.522614 239.937515,176.428665 
	C239.614822,175.956299 239.292130,175.483932 238.931503,174.293976 
	C234.025436,166.076004 229.119370,157.858047 223.825897,149.074005 
	C221.592331,145.038986 219.358780,141.003967 216.999863,136.260925 
	C214.031631,131.787247 211.063400,127.313560 208.062500,122.106995 
	C206.289673,118.741165 204.516846,115.375336 202.605316,111.345261 
	C200.347534,107.564026 198.089737,103.782784 195.671661,99.344658 
	C193.512802,95.873451 191.353958,92.402252 189.027634,88.240166 
	C187.398285,85.477493 185.768951,82.714821 183.981445,79.262962 
	C182.328308,76.506531 180.675171,73.750099 178.924347,70.296577 
	C176.995438,67.182892 175.066513,64.069206 172.997650,60.252537 
	C170.757507,56.476536 168.517365,52.700531 166.097641,48.225048 
	C162.056992,41.486794 158.016327,34.748539 153.800903,27.327505 
	C152.966202,25.732960 152.079071,24.163387 151.305801,22.539587 
	C147.773911,15.122927 142.281479,10.217595 133.363892,8.427303 
	C131.526093,8.368855 129.688293,8.310408 127.052147,8.131731 
	C122.036064,10.098136 117.019989,12.064540 111.383080,14.282262 
	C108.599304,18.525747 105.815536,22.769236 102.421883,27.309311 
	C99.367882,32.546852 96.313881,37.784393 92.805092,43.558647 
z"/>
<path fill="#3CCFB6" opacity="1.000000" stroke="none" 
	d="
M133.969162,8.878857 
	C142.281479,10.217595 147.773911,15.122927 151.305801,22.539587 
	C152.079071,24.163387 152.966202,25.732960 153.610168,27.913601 
	C153.634903,31.306198 153.850388,34.112701 153.838043,37.220436 
	C151.768097,37.862453 149.938431,38.363354 148.081024,38.507790 
	C145.030396,38.745007 141.879135,38.340603 138.917389,38.937077 
	C132.033813,40.323360 130.171417,38.857250 129.934341,31.687551 
	C129.838165,28.778742 129.006348,25.894258 128.404022,22.572960 
	C128.185791,20.106279 128.072800,18.065348 128.050735,15.603531 
	C128.161087,13.463853 128.180527,11.745059 128.520218,9.837383 
	C130.550034,9.391953 132.259598,9.135406 133.969162,8.878857 
z"/>
<path fill="#8156AB" opacity="1.000000" stroke="none" 
	d="
M241.133270,204.164642 
	C237.963135,211.418396 232.114563,215.123642 224.541565,216.023987 
	C220.100677,216.551971 215.566895,216.298752 210.618332,216.015839 
	C210.101135,215.105896 210.040512,214.577042 209.987091,213.583344 
	C209.996201,210.975586 210.140411,208.821274 209.969406,206.692261 
	C209.647949,202.689835 211.091797,199.552109 214.393524,197.390289 
	C216.862595,195.773666 219.510056,194.429504 222.434937,193.010117 
	C225.847946,194.388535 228.904099,195.720871 232.164612,197.317871 
	C235.290390,199.776566 238.211838,201.970596 241.133270,204.164642 
z"/>
<path fill="#8EAAD6" opacity="1.000000" stroke="none" 
	d="
M195.831955,100.001556 
	C198.089737,103.782784 200.347534,107.564026 202.285080,111.686768 
	C199.850723,112.354546 197.697739,112.523964 195.629654,113.036095 
	C189.049667,114.665520 182.656616,116.678612 178.616211,123.047531 
	C174.894379,120.954910 171.518799,118.926926 168.004028,116.659363 
	C167.569412,115.952721 167.274033,115.485641 166.995041,114.573410 
	C167.018494,111.751869 167.025558,109.375481 167.426010,106.998825 
	C169.240860,106.653000 170.664459,106.315994 172.083405,105.960434 
	C180.000198,103.976624 187.915894,101.988319 195.831955,100.001556 
z"/>
<path fill="#4DD0C3" opacity="1.000000" stroke="none" 
	d="
M42.087444,216.451477 
	C37.571106,216.129547 33.054768,215.807617 28.109631,215.051788 
	C27.366531,214.555969 27.052233,214.494049 26.737938,214.432114 
	C23.100298,210.927338 19.462658,207.422562 16.070621,203.412125 
	C21.591204,199.707733 26.866186,196.509003 32.498085,193.229034 
	C35.887035,191.666275 38.919071,190.184738 41.833733,189.113464 
	C41.147461,197.111374 40.503452,204.695114 40.110973,212.291855 
	C40.065292,213.176010 41.411579,214.132065 42.084778,215.403564 
	C42.067162,215.985382 42.077301,216.218414 42.087444,216.451477 
z"/>
<path fill="#9169D0" opacity="1.000000" stroke="none" 
	d="
M238.969437,175.011566 
	C239.292130,175.483932 239.614822,175.956299 239.673019,176.979431 
	C239.605484,180.354477 239.802444,183.178757 239.565643,186.001816 
	C237.673950,185.805603 236.200241,185.364929 234.760757,185.457352 
	C227.829102,185.902405 220.906693,186.491211 213.632523,186.988419 
	C211.189667,185.966248 209.095276,184.984650 206.785156,183.884827 
	C206.299286,183.560669 206.112152,183.296051 206.005905,182.567505 
	C206.535034,180.521835 206.663803,177.779785 207.661255,177.415390 
	C215.580795,174.522034 222.976395,169.391327 232.372528,171.121246 
	C234.769379,172.519394 236.869400,173.765488 238.969437,175.011566 
z"/>
<path fill="#8FA1D6" opacity="1.000000" stroke="none" 
	d="
M153.000443,216.586731 
	C147.983093,216.664459 142.965759,216.742172 137.470093,216.366760 
	C134.664703,208.002243 131.827866,200.022369 140.450073,193.791840 
	C140.864044,193.492722 140.838120,192.584824 141.349228,191.962341 
	C142.124710,191.956421 142.568008,191.948547 143.331955,192.100281 
	C147.100555,193.512100 150.548492,194.764313 154.252365,196.141266 
	C155.019180,196.807175 155.530045,197.348312 155.998611,198.252487 
	C151.918839,203.742661 149.877014,209.214050 152.984329,215.599243 
	C153.114883,215.867493 153.000641,216.254852 153.000443,216.586731 
z"/>
<path fill="#EC7D78" opacity="1.000000" stroke="none" 
	d="
M56.332489,107.755272 
	C58.026089,104.630920 59.719692,101.506577 62.007023,98.339645 
	C68.075539,100.369041 73.493416,102.612991 79.045769,104.450592 
	C82.556839,105.612617 86.268570,106.168350 89.912598,107.402191 
	C89.696053,110.274666 89.457207,112.740967 89.131760,115.528595 
	C88.333145,117.190193 87.621132,118.530487 86.544006,119.907021 
	C84.121651,120.637459 82.064415,121.331650 79.998924,121.659378 
	C77.962547,119.334557 76.131523,117.102203 73.866669,115.472916 
	C68.596954,111.681992 63.520752,107.258400 56.332489,107.755272 
z"/>
<path fill="#EA7B7F" opacity="1.000000" stroke="none" 
	d="
M56.071129,107.913826 
	C63.520752,107.258400 68.596954,111.681992 73.866669,115.472916 
	C76.131523,117.102203 77.962547,119.334557 79.847153,121.957214 
	C76.791451,125.054298 73.879272,127.487091 70.651352,129.972412 
	C69.557716,130.363083 68.779808,130.701218 68.000824,130.647705 
	C68.536148,126.467491 65.515495,125.705032 63.056129,124.571297 
	C58.672676,122.550560 54.236214,120.644814 49.821915,118.690987 
	C51.817863,115.151451 53.813812,111.611916 56.071129,107.913826 
z"/>
<path fill="#8AB0D9" opacity="1.000000" stroke="none" 
	d="
M125.982635,216.660538 
	C121.961418,216.719086 117.940208,216.777634 113.461357,216.307800 
	C113.580086,209.330887 114.259560,202.888367 114.635460,196.428192 
	C114.701233,195.297836 113.491196,194.093262 113.066086,192.627472 
	C117.572418,190.218628 121.883049,188.105255 126.489212,186.195679 
	C126.968376,188.069214 127.403191,189.756668 127.286911,191.405243 
	C126.980568,195.748718 126.270653,200.066284 126.032143,204.411240 
	C125.808632,208.482971 125.983231,212.576569 125.982635,216.660538 
z"/>
<path fill="#93A3D7" opacity="1.000000" stroke="none" 
	d="
M178.962463,123.112167 
	C182.656616,116.678612 189.049667,114.665520 195.629654,113.036095 
	C197.697739,112.523964 199.850723,112.354546 202.354431,112.018883 
	C204.516846,115.375336 206.289673,118.741165 207.871918,122.775177 
	C201.431992,125.972244 195.182632,128.501129 188.622955,130.999161 
	C187.545792,130.643723 186.778976,130.319122 185.857895,129.698761 
	C183.456573,127.306061 181.209518,125.209114 178.962463,123.112167 
z"/>
<path fill="#89B3D5" opacity="1.000000" stroke="none" 
	d="
M195.751801,99.673111 
	C187.915894,101.988319 180.000198,103.976624 172.083405,105.960434 
	C170.664459,106.315994 169.240860,106.653000 167.396637,106.587578 
	C166.602692,103.116074 166.231522,100.055557 165.890411,96.628998 
	C165.631256,94.842224 165.342056,93.421501 165.428070,92.006516 
	C168.014175,91.922180 170.253403,92.024765 172.430389,91.704399 
	C178.033340,90.879883 183.608704,89.868034 189.195099,88.931046 
	C191.353958,92.402252 193.512802,95.873451 195.751801,99.673111 
z"/>
<path fill="#939AD4" opacity="1.000000" stroke="none" 
	d="
M153.458237,216.698486 
	C153.000641,216.254852 153.114883,215.867493 152.984329,215.599243 
	C149.877014,209.214050 151.918839,203.742661 156.389816,198.275742 
	C159.549210,198.618179 162.275101,199.300385 165.336060,200.039948 
	C166.751251,200.412109 167.831360,200.726929 169.003098,201.393829 
	C170.402237,202.142685 171.709747,202.539444 173.126648,203.153595 
	C173.434067,203.641113 173.690659,203.832886 173.954987,204.359863 
	C173.602402,208.689377 173.300674,212.605286 172.998947,216.521194 
	C166.637970,216.617538 160.277008,216.713882 153.458237,216.698486 
z"/>
<path fill="#F08A6D" opacity="1.000000" stroke="none" 
	d="
M67.418442,88.690567 
	C69.413963,84.923981 71.409485,81.157394 74.035873,77.227936 
	C80.772156,79.042465 86.877563,81.019859 93.002808,83.247437 
	C93.033234,83.664574 93.043839,83.831520 93.031601,84.414268 
	C92.996544,86.216545 92.984329,87.603027 92.701279,89.246704 
	C91.941696,92.002090 91.452942,94.500282 90.560623,96.998062 
	C82.577522,94.228622 74.997986,91.459595 67.418442,88.690567 
z"/>
<path fill="#95ACDA" opacity="1.000000" stroke="none" 
	d="
M126.434006,216.761353 
	C125.983231,212.576569 125.808632,208.482971 126.032143,204.411240 
	C126.270653,200.066284 126.980568,195.748718 127.286911,191.405243 
	C127.403191,189.756668 126.968376,188.069214 126.447891,186.015213 
	C126.111031,185.630936 126.046150,185.267502 126.372162,185.221909 
	C127.133614,185.122070 127.569061,185.067825 128.330307,185.057434 
	C129.093384,185.125610 129.530640,185.149948 130.031250,185.512817 
	C133.735397,187.887695 137.376205,189.924042 141.017029,191.960403 
	C140.838120,192.584824 140.864044,193.492722 140.450073,193.791840 
	C131.827866,200.022369 134.664703,208.002243 137.013611,216.278931 
	C133.652100,216.716888 130.268738,216.789536 126.434006,216.761353 
z"/>
<path fill="#E57A86" opacity="1.000000" stroke="none" 
	d="
M49.541145,118.896942 
	C54.236214,120.644814 58.672676,122.550560 63.056129,124.571297 
	C65.515495,125.705032 68.536148,126.467491 67.736038,130.839890 
	C64.973045,133.930557 62.473763,136.437424 59.685928,139.095123 
	C58.291290,139.883423 57.185204,140.520874 56.053528,140.781067 
	C53.871143,133.769592 48.565517,132.108963 42.413887,131.784592 
	C44.696049,127.557358 46.978210,123.330124 49.541145,118.896942 
z"/>
<path fill="#9A92CD" opacity="1.000000" stroke="none" 
	d="
M173.454865,216.643524 
	C173.300674,212.605286 173.602402,208.689377 174.352173,204.368988 
	C176.858856,204.339905 178.917496,204.715286 181.212952,205.347717 
	C183.966919,206.390198 186.484070,207.175629 189.330505,208.132263 
	C192.096085,208.896011 194.532379,209.488586 197.224396,210.341324 
	C201.646698,211.750397 205.813293,212.899292 209.979889,214.048187 
	C210.040512,214.577042 210.101135,215.105896 210.212784,215.887878 
	C203.643173,216.371658 197.024078,216.684433 190.401443,216.807480 
	C184.906723,216.909592 179.407837,216.788223 173.454865,216.643524 
z"/>
<path fill="#A04890" opacity="1.000000" stroke="none" 
	d="
M32.141167,193.310272 
	C26.866186,196.509003 21.591204,199.707733 15.973698,203.075653 
	C10.385514,195.386414 10.649535,185.859970 16.784981,177.394806 
	C18.548744,179.283234 19.714319,181.196609 21.242195,182.754700 
	C24.782051,186.364548 28.497129,189.802582 32.141167,193.310272 
z"/>
<path fill="#EE8373" opacity="1.000000" stroke="none" 
	d="
M67.157883,88.868202 
	C74.997986,91.459595 82.577522,94.228622 90.570648,97.373230 
	C90.987686,98.499321 90.991142,99.249809 90.941856,100.387772 
	C90.556175,102.848831 90.223236,104.922424 89.890297,106.996017 
	C86.268570,106.168350 82.556839,105.612617 79.045769,104.450592 
	C73.493416,102.612991 68.075539,100.369041 62.275925,98.135109 
	C63.599842,94.997391 65.248589,92.021614 67.157883,88.868202 
z"/>
<path fill="#999DD8" opacity="1.000000" stroke="none" 
	d="
M188.933289,131.029999 
	C195.182632,128.501129 201.431992,125.972244 207.888260,123.141624 
	C211.063400,127.313560 214.031631,131.787247 216.629044,136.624847 
	C212.226120,137.700867 208.157654,138.264481 204.189285,139.236679 
	C203.275803,139.460480 202.705734,141.086060 201.649567,142.014145 
	C199.881409,140.974258 198.441315,139.986771 196.810928,138.730759 
	C194.058182,135.984818 191.495743,133.507401 188.933289,131.029999 
z"/>
<path fill="#F6A92B" opacity="1.000000" stroke="none" 
	d="
M128.199966,10.026265 
	C128.180527,11.745059 128.161087,13.463853 127.761971,15.900442 
	C127.246094,22.747723 127.109909,28.877209 126.644440,35.003933 
	C125.875793,34.999306 125.436424,34.997440 124.963242,34.650764 
	C123.352089,32.436272 121.578201,30.696695 120.237045,28.670668 
	C117.143486,23.997370 110.321571,21.385317 112.003906,14.030945 
	C117.019989,12.064540 122.036064,10.098136 127.472900,8.494434 
	C127.995766,9.246847 128.097870,9.636556 128.199966,10.026265 
z"/>
<path fill="#88B7DA" opacity="1.000000" stroke="none" 
	d="
M112.870384,192.922974 
	C113.491196,194.093262 114.701233,195.297836 114.635460,196.428192 
	C114.259560,202.888367 113.580086,209.330887 113.007957,216.214218 
	C109.313400,216.716690 105.614609,216.784332 101.460129,216.328659 
	C101.309456,211.382187 101.809151,206.959213 101.812798,202.535797 
	C101.814056,201.008301 100.581039,199.479782 100.111938,197.700653 
	C101.544708,196.648270 102.777359,195.846970 104.394989,195.033340 
	C107.476784,194.321655 110.173584,193.622314 112.870384,192.922974 
z"/>
<path fill="#86BFDA" opacity="1.000000" stroke="none" 
	d="
M99.911827,197.951736 
	C100.581039,199.479782 101.814056,201.008301 101.812798,202.535797 
	C101.809151,206.959213 101.309456,211.382187 101.008911,216.238144 
	C96.650620,216.735672 92.287849,216.800415 87.464905,216.347885 
	C87.002197,213.221146 87.363197,210.538910 86.860992,208.029434 
	C86.559036,206.520569 84.911720,205.280960 84.006561,203.675644 
	C84.428680,202.949326 84.713242,202.467682 85.382477,201.982178 
	C88.510330,200.981049 91.253525,199.983780 94.378326,198.980560 
	C96.477219,198.633667 98.194527,198.292694 99.911827,197.951736 
z"/>
<path fill="#85BAD3" opacity="1.000000" stroke="none" 
	d="
M189.111359,88.585602 
	C183.608704,89.868034 178.033340,90.879883 172.430389,91.704399 
	C170.253403,92.024765 168.014175,91.922180 165.397308,91.623108 
	C164.645432,89.488548 164.299545,87.743134 163.964844,85.582596 
	C163.955063,83.784065 163.934097,82.400665 164.315887,80.968353 
	C171.192307,80.597008 177.665970,80.274574 184.139618,79.952141 
	C185.768951,82.714821 187.398285,85.477493 189.111359,88.585602 
z"/>
<path fill="#86C9D9" opacity="1.000000" stroke="none" 
	d="
M83.869019,203.920319 
	C84.911720,205.280960 86.559036,206.520569 86.860992,208.029434 
	C87.363197,210.538910 87.002197,213.221146 87.009186,216.260071 
	C79.999550,216.744385 72.985451,216.799271 65.495651,216.369263 
	C65.009407,213.603241 64.998863,211.322128 65.339218,208.980072 
	C67.468765,207.977524 69.247429,207.035889 71.425705,206.083466 
	C74.549042,205.369339 77.272766,204.665985 80.385757,203.966629 
	C81.806358,203.953873 82.837692,203.937103 83.869019,203.920319 
z"/>
<path fill="#DE7C8F" opacity="1.000000" stroke="none" 
	d="
M42.147858,131.942749 
	C48.565517,132.108963 53.871143,133.769592 55.999264,141.078583 
	C55.315353,142.507950 54.660126,143.262558 53.693398,144.134171 
	C51.253101,146.165741 49.124302,148.080307 46.691879,150.008026 
	C45.985703,150.043030 45.583149,150.064865 44.865189,149.941971 
	C41.668427,147.480896 38.787079,145.164551 35.905731,142.848206 
	C37.897766,139.265778 39.889793,135.683350 42.147858,131.942749 
z"/>
<path fill="#F1956A" opacity="1.000000" stroke="none" 
	d="
M92.982979,82.997253 
	C86.877563,81.019859 80.772156,79.042465 74.304489,77.022446 
	C76.086784,73.078125 78.231339,69.176422 80.813721,65.402649 
	C84.847443,70.078659 90.159302,69.352196 95.020935,70.452393 
	C94.996376,73.251678 94.971634,75.608711 94.638588,78.148438 
	C93.881180,79.886505 93.432083,81.441872 92.982979,82.997253 
z"/>
<path fill="#A099D9" opacity="1.000000" stroke="none" 
	d="
M201.977631,142.066559 
	C202.705734,141.086060 203.275803,139.460480 204.189285,139.236679 
	C208.157654,138.264481 212.226120,137.700867 216.691727,136.978851 
	C219.358780,141.003967 221.592331,145.038986 223.824738,149.725403 
	C222.392273,150.917816 220.947510,151.426193 219.533279,152.008728 
	C218.006836,152.637482 216.508926,153.335556 214.701889,153.856750 
	C212.633560,152.455902 210.861908,151.201675 208.930786,149.655090 
	C206.506744,146.930664 204.242188,144.498611 201.977631,142.066559 
z"/>
<path fill="#F4A730" opacity="1.000000" stroke="none" 
	d="
M111.693497,14.156603 
	C110.321571,21.385317 117.143486,23.997370 120.237045,28.670668 
	C121.578201,30.696695 123.352089,32.436272 124.626450,34.799080 
	C123.067841,35.301624 121.793457,35.455597 120.559776,35.295624 
	C115.018478,34.577076 109.488739,33.769325 103.957794,32.591003 
	C103.651093,30.463081 103.341431,28.737904 103.031769,27.012722 
	C105.815536,22.769236 108.599304,18.525747 111.693497,14.156603 
z"/>
<path fill="#A8498B" opacity="1.000000" stroke="none" 
	d="
M32.498081,193.229034 
	C28.497129,189.802582 24.782051,186.364548 21.242195,182.754700 
	C19.714319,181.196609 18.548744,179.283234 17.072596,177.196228 
	C17.282087,176.113785 17.637569,175.366348 18.508759,174.325089 
	C20.328239,173.314957 21.632011,172.598648 23.081650,172.211212 
	C25.347431,178.646973 30.387499,181.144485 35.972698,183.196442 
	C38.480862,184.117950 40.709129,185.801285 42.959492,187.359634 
	C42.553421,187.954651 42.252266,188.328934 41.951111,188.703217 
	C38.919071,190.184738 35.887035,191.666275 32.498081,193.229034 
z"/>
<path fill="#AA98DC" opacity="1.000000" stroke="none" 
	d="
M214.998581,154.003387 
	C216.508926,153.335556 218.006836,152.637482 219.533279,152.008728 
	C220.947510,151.426193 222.392273,150.917816 224.018433,150.008423 
	C229.119370,157.858047 234.025436,166.076004 238.950470,174.652771 
	C236.869400,173.765488 234.769379,172.519394 232.211426,170.827881 
	C227.875183,166.903732 223.996841,163.424988 219.948715,159.663727 
	C218.185486,157.588593 216.592026,155.795990 214.998581,154.003387 
z"/>
<path fill="#80C0D1" opacity="1.000000" stroke="none" 
	d="
M184.060532,79.607552 
	C177.665970,80.274574 171.192307,80.597008 164.058716,80.716263 
	C162.912766,78.341125 162.426758,76.169182 161.953796,73.598877 
	C161.954407,72.138069 161.941971,71.075615 162.364655,70.009064 
	C168.285751,69.045631 173.764740,68.200935 179.022034,70.993660 
	C180.675171,73.750099 182.328308,76.506531 184.060532,79.607552 
z"/>
<path fill="#F39F66" opacity="1.000000" stroke="none" 
	d="
M95.020767,70.010139 
	C90.159302,69.352196 84.847443,70.078659 81.090515,65.203056 
	C82.796112,61.417526 84.662743,57.959534 87.114258,54.286392 
	C90.800301,55.713310 93.901466,57.355377 97.006851,59.372890 
	C97.017319,60.499027 97.023567,61.249710 97.014137,62.407288 
	C96.662094,65.207329 96.325722,67.600487 95.747162,69.995605 
	C95.504982,69.997574 95.020767,70.010139 95.020767,70.010139 
z"/>
<path fill="#D77E98" opacity="1.000000" stroke="none" 
	d="
M35.627865,143.047699 
	C38.787079,145.164551 41.668427,147.480896 44.686718,150.207703 
	C43.886185,151.756714 42.948711,152.895248 41.710548,154.168640 
	C39.245079,156.523911 37.080299,158.744324 34.607994,161.004761 
	C33.553482,161.402283 32.806499,161.759811 31.916870,161.790314 
	C30.839113,159.282013 29.904001,157.100754 28.968891,154.919479 
	C31.095928,151.028717 33.222965,147.137939 35.627865,143.047699 
z"/>
<path fill="#7BC6D0" opacity="1.000000" stroke="none" 
	d="
M178.973190,70.645119 
	C173.764740,68.200935 168.285751,69.045631 162.104156,69.751450 
	C160.942459,66.999603 160.476425,64.501274 160.391083,61.958698 
	C164.893723,61.594807 169.015656,61.275169 173.137589,60.955528 
	C175.066513,64.069206 176.995438,67.182892 178.973190,70.645119 
z"/>
<path fill="#72D2CB" opacity="1.000000" stroke="none" 
	d="
M154.065872,36.919201 
	C153.850388,34.112701 153.634903,31.306198 153.697540,28.254990 
	C158.016327,34.748539 162.056992,41.486794 165.774200,48.597679 
	C162.976151,49.647152 160.501541,50.323990 157.915527,50.785934 
	C157.617630,50.294285 157.367874,50.098007 157.002411,49.581448 
	C155.988571,45.093525 155.027222,41.006363 154.065872,36.919201 
z"/>
<path fill="#75CBCD" opacity="1.000000" stroke="none" 
	d="
M158.026917,51.000824 
	C160.501541,50.323990 162.976151,49.647152 165.863998,48.947418 
	C168.517365,52.700531 170.757507,56.476536 173.067627,60.604034 
	C169.015656,61.275169 164.893723,61.594807 160.282013,61.742218 
	C159.606552,61.289799 159.354675,61.095325 159.031403,60.559841 
	C158.693100,57.089012 158.360016,54.044918 158.026917,51.000824 
z"/>
<path fill="#986CCA" opacity="1.000000" stroke="none" 
	d="
M239.999390,186.003052 
	C239.802444,183.178757 239.605484,180.354477 239.675354,177.273819 
	C246.410019,185.522614 246.270844,194.467880 241.426605,203.935822 
	C238.211838,201.970596 235.290390,199.776566 232.407700,197.033142 
	C240.001068,196.761703 240.001099,196.761703 240.000565,188.479599 
	C240.000519,187.654083 239.999802,186.828568 239.999390,186.003052 
z"/>
<path fill="#F5AA65" opacity="1.000000" stroke="none" 
	d="
M97.002625,58.997440 
	C93.901466,57.355377 90.800301,55.713310 87.348587,54.036327 
	C88.933716,50.520489 90.869400,47.039566 93.373016,43.294403 
	C95.651253,44.032383 97.361572,45.034611 99.058365,46.449074 
	C99.036560,48.241070 99.028275,49.620831 98.998627,51.392975 
	C98.319061,54.189384 97.660843,56.593414 97.002625,58.997440 
z"/>
<path fill="#95D4DE" opacity="1.000000" stroke="none" 
	d="
M64.988327,209.041000 
	C64.998863,211.322128 65.009407,213.603241 65.035934,216.298035 
	C57.621910,216.757477 50.191891,216.803238 42.424660,216.650238 
	C42.077301,216.218414 42.067162,215.985382 42.464794,215.407379 
	C44.936550,214.424286 47.000534,213.786179 49.441628,213.124756 
	C51.573368,212.465134 53.328003,211.828812 55.481590,211.157928 
	C58.586876,210.415390 61.293209,209.707382 64.246902,209.005844 
	C64.494270,209.012299 64.988327,209.041000 64.988327,209.041000 
z"/>
<path fill="#F7B665" opacity="1.000000" stroke="none" 
	d="
M99.071899,46.036839 
	C97.361572,45.034611 95.651253,44.032383 93.600403,43.026047 
	C96.313881,37.784393 99.367882,32.546852 102.726822,27.161018 
	C103.341431,28.737904 103.651093,30.463081 103.808418,32.931442 
	C103.083069,36.111637 102.510048,38.548645 101.677467,41.230675 
	C100.635902,42.996075 99.853897,44.516457 99.071899,46.036839 
z"/>
<path fill="#CF81A2" opacity="1.000000" stroke="none" 
	d="
M28.685003,155.107864 
	C29.904001,157.100754 30.839113,159.282013 31.868769,162.096008 
	C31.285795,163.762100 30.608278,164.795471 29.631762,165.984863 
	C27.200436,168.054718 25.068108,169.968536 22.935783,171.882339 
	C21.632011,172.598648 20.328239,173.314957 18.718632,174.087418 
	C21.742239,167.861145 25.071678,161.578690 28.685003,155.107864 
z"/>
<path fill="#85C491" opacity="1.000000" stroke="none" 
	d="
M128.520218,9.837383 
	C128.097870,9.636556 127.995766,9.246847 127.872086,8.554550 
	C129.688293,8.310408 131.526093,8.368855 133.666534,8.653080 
	C132.259598,9.135406 130.550034,9.391953 128.520218,9.837383 
z"/>
<path fill="#95D4DE" opacity="1.000000" stroke="none" 
	d="
M26.890377,214.606308 
	C27.052233,214.494049 27.366531,214.555969 27.792812,214.846970 
	C27.580240,215.086044 27.292915,214.987534 26.890377,214.606308 
z"/>
<path fill="#3EC7B9" opacity="1.000000" stroke="none" 
	d="
M153.838043,37.220436 
	C155.027222,41.006363 155.988571,45.093525 156.576202,49.588772 
	C153.915359,50.324299 151.620789,50.965981 149.342712,50.911987 
	C144.966248,50.808262 140.573364,50.490765 136.242722,49.873257 
	C134.816193,49.669853 133.028519,48.569950 132.336456,47.351486 
	C130.847778,44.730492 129.963425,41.766247 128.716217,38.548935 
	C128.570221,33.103149 128.539734,28.050928 128.509247,22.998707 
	C129.006348,25.894258 129.838165,28.778742 129.934341,31.687551 
	C130.171417,38.857250 132.033813,40.323360 138.917389,38.937077 
	C141.879135,38.340603 145.030396,38.745007 148.081024,38.507790 
	C149.938431,38.363354 151.768097,37.862453 153.838043,37.220436 
z"/>
<path fill="#FDA114" opacity="1.000000" stroke="none" 
	d="
M128.404022,22.572960 
	C128.539734,28.050928 128.570221,33.103149 128.617508,39.006592 
	C128.714050,43.553017 128.793808,47.248222 128.778091,51.371933 
	C128.575699,53.816914 128.468781,55.833389 128.037476,57.731453 
	C127.463074,55.081017 127.213028,52.548992 126.977005,49.561272 
	C126.984917,46.070518 126.978821,43.035469 126.978943,39.584167 
	C126.981354,37.780842 126.977539,36.393768 126.973724,35.006695 
	C127.109909,28.877209 127.246094,22.747723 127.671036,16.321327 
	C128.072800,18.065348 128.185791,20.106279 128.404022,22.572960 
z"/>
<path fill="#7958AC" opacity="1.000000" stroke="none" 
	d="
M209.987076,213.583344 
	C205.813293,212.899292 201.646698,211.750397 197.242706,209.930298 
	C197.785019,206.263351 198.232224,203.128464 199.415131,200.301422 
	C201.726410,194.777710 204.448746,189.425980 207.000900,184.003052 
	C209.095276,184.984650 211.189667,185.966248 213.837219,187.256561 
	C216.952972,189.364883 219.515533,191.164459 222.078094,192.964035 
	C219.510056,194.429504 216.862595,195.773666 214.393524,197.390289 
	C211.091797,199.552109 209.647949,202.689835 209.969406,206.692261 
	C210.140411,208.821274 209.996201,210.975586 209.987076,213.583344 
z"/>
<path fill="#956BCD" opacity="1.000000" stroke="none" 
	d="
M222.434937,193.010117 
	C219.515533,191.164459 216.952972,189.364883 214.185699,187.297150 
	C220.906693,186.491211 227.829102,185.902405 234.760757,185.457352 
	C236.200241,185.364929 237.673950,185.805603 239.565643,186.001816 
	C239.999802,186.828568 240.000519,187.654083 240.000565,188.479599 
	C240.001099,196.761703 240.001068,196.761703 232.203354,196.768478 
	C228.904099,195.720871 225.847946,194.388535 222.434937,193.010117 
z"/>
<path fill="#5B96C9" opacity="1.000000" stroke="none" 
	d="
M165.860367,96.995041 
	C166.231522,100.055557 166.602692,103.116074 167.003235,106.587837 
	C167.025558,109.375481 167.018494,111.751869 166.685547,114.449310 
	C164.587555,113.840134 162.815445,112.909912 160.881439,111.682480 
	C156.829224,108.886002 152.938904,106.386719 148.901260,103.618759 
	C147.823105,102.269455 146.892288,101.188828 146.138580,99.764679 
	C152.830582,98.612442 159.345474,97.803741 165.860367,96.995041 
z"/>
<path fill="#4161A1" opacity="1.000000" stroke="none" 
	d="
M161.043350,111.979683 
	C162.815445,112.909912 164.587555,113.840134 166.669159,114.894463 
	C167.274033,115.485641 167.569412,115.952721 167.961319,117.070175 
	C168.318283,119.817581 168.578720,121.914612 168.424377,124.007919 
	C161.419235,123.672661 154.828857,123.341118 147.984192,122.783287 
	C146.777267,120.800369 145.824600,119.043747 144.965607,116.888428 
	C150.387299,114.986389 155.715317,113.483040 161.043350,111.979683 
z"/>
<path fill="#6981C6" opacity="1.000000" stroke="none" 
	d="
M168.839157,124.011635 
	C168.578720,121.914612 168.318283,119.817581 168.100525,117.309753 
	C171.518799,118.926926 174.894379,120.954910 178.616211,123.047531 
	C181.209518,125.209114 183.456573,127.306061 185.530212,129.863434 
	C180.743454,134.174484 175.200592,132.703384 169.737885,132.994263 
	C169.507263,132.976898 169.046921,132.925583 169.051575,132.480469 
	C168.983871,129.360779 168.911514,126.686203 168.839157,124.011635 
z"/>
<path fill="#4DCAC4" opacity="1.000000" stroke="none" 
	d="
M49.064518,213.148071 
	C47.000534,213.786179 44.936550,214.424286 42.492554,215.058594 
	C41.411579,214.132065 40.065292,213.176010 40.110973,212.291855 
	C40.503452,204.695114 41.147461,197.111374 41.833736,189.113480 
	C42.252266,188.328934 42.553421,187.954651 43.264038,187.325287 
	C44.078934,187.025635 44.484367,186.981079 45.282257,186.966873 
	C46.561413,187.587952 48.097340,188.064774 48.224342,188.788773 
	C48.828934,192.235306 49.272041,195.743912 49.353294,199.240173 
	C49.460926,203.871399 49.179016,208.511688 49.064518,213.148071 
z"/>
<path fill="#896BCE" opacity="1.000000" stroke="none" 
	d="
M220.118484,159.946259 
	C223.996841,163.424988 227.875183,166.903732 231.914627,170.675842 
	C222.976395,169.391327 215.580795,174.522034 207.661255,177.415390 
	C206.663803,177.779785 206.535034,180.521835 205.684875,182.439453 
	C202.245209,181.141006 199.124435,179.565384 195.847977,177.748978 
	C195.123749,177.013962 194.555222,176.519745 193.995544,175.655029 
	C195.854813,173.102798 197.284409,170.096466 199.635834,168.896454 
	C206.260574,165.515625 213.264206,162.877289 220.118484,159.946259 
z"/>
<path fill="#735AAE" opacity="1.000000" stroke="none" 
	d="
M196.003662,177.989777 
	C199.124435,179.565384 202.245209,181.141006 205.687012,182.844666 
	C206.112152,183.296051 206.299286,183.560669 206.785156,183.884827 
	C204.448746,189.425980 201.726410,194.777710 199.415131,200.301422 
	C198.232224,203.128464 197.785019,206.263351 196.987000,209.670135 
	C194.532379,209.488586 192.096085,208.896011 189.330292,207.698517 
	C189.616699,199.163376 190.342987,191.291412 194.351669,184.107986 
	C195.350266,182.318558 195.476486,180.042297 196.003662,177.989777 
z"/>
<path fill="#676DBB" opacity="1.000000" stroke="none" 
	d="
M165.000977,199.982590 
	C162.275101,199.300385 159.549210,198.618179 156.432129,197.912720 
	C155.530045,197.348312 155.019180,196.807175 154.253265,195.741760 
	C151.282120,189.121765 150.862381,183.044754 153.919876,176.892654 
	C154.316635,176.094330 153.984299,174.933640 154.199524,173.675476 
	C158.245300,171.592773 162.081268,169.775421 166.176392,168.152283 
	C166.517044,168.653122 166.765213,169.048355 166.656067,169.253662 
	C161.611008,178.744125 158.908646,188.354935 164.916000,198.510712 
	C165.138351,198.886581 164.981247,199.486877 165.000977,199.982590 
z"/>
<path fill="#6875BD" opacity="1.000000" stroke="none" 
	d="
M153.989700,173.940826 
	C153.984299,174.933640 154.316635,176.094330 153.919876,176.892654 
	C150.862381,183.044754 151.282120,189.121765 153.997314,195.617004 
	C150.548492,194.764313 147.100555,193.512100 143.319519,191.701706 
	C141.968307,187.750046 140.950165,184.356567 140.114136,180.716461 
	C141.219360,179.688614 142.142471,178.907394 143.434418,178.087509 
	C147.198730,176.679504 150.594223,175.310165 153.989700,173.940826 
z"/>
<path fill="#6A7FC0" opacity="1.000000" stroke="none" 
	d="
M139.932037,180.963104 
	C140.950165,184.356567 141.968307,187.750046 142.998871,191.542084 
	C142.568008,191.948547 142.124710,191.956421 141.349213,191.962341 
	C137.376205,189.924042 133.735397,187.887695 130.228622,185.207092 
	C133.552444,183.362930 136.742249,182.163025 139.932037,180.963104 
z"/>
<path fill="#9D3941" opacity="1.000000" stroke="none" 
	d="
M86.909119,119.870773 
	C87.621132,118.530487 88.333145,117.190193 89.451462,115.432869 
	C92.199364,113.661469 94.540955,112.307106 97.317551,110.968346 
	C103.480019,109.573219 109.040527,108.985168 113.390732,114.534439 
	C109.678970,121.180817 106.006920,127.458282 102.222626,133.314575 
	C101.430672,132.276962 100.774178,131.159592 100.067413,131.126831 
	C96.040207,130.940140 92.001022,131.012070 87.958572,130.574936 
	C87.603874,126.726120 87.256500,123.298447 86.909119,119.870773 
z"/>
<path fill="#E33949" opacity="1.000000" stroke="none" 
	d="
M86.544006,119.907021 
	C87.256500,123.298447 87.603874,126.726120 87.801147,130.951813 
	C87.367126,135.161484 87.083206,138.573105 86.448288,142.040894 
	C84.132576,142.564774 80.966866,144.024582 80.399612,143.337891 
	C76.928200,139.135544 74.045769,134.446655 70.967087,129.919891 
	C73.879272,127.487091 76.791451,125.054298 79.855408,122.323677 
	C82.064415,121.331650 84.121651,120.637459 86.544006,119.907021 
z"/>
<path fill="#E25F4E" opacity="1.000000" stroke="none" 
	d="
M96.882545,110.952744 
	C94.540955,112.307106 92.199364,113.661469 89.538063,115.111557 
	C89.457207,112.740967 89.696053,110.274666 89.912598,107.402191 
	C90.223236,104.922424 90.556175,102.848831 91.404388,100.387817 
	C97.287354,100.693481 102.655045,101.386566 107.859695,102.369781 
	C104.091965,105.424194 100.487259,108.188469 96.882545,110.952744 
z"/>
<path fill="#DE3653" opacity="1.000000" stroke="none" 
	d="
M70.651360,129.972427 
	C74.045769,134.446655 76.928200,139.135544 80.399612,143.337891 
	C80.966866,144.024582 84.132576,142.564774 86.510315,142.291779 
	C86.947578,142.656662 86.971825,142.826828 86.969170,143.410309 
	C86.560905,147.212265 86.179550,150.600922 85.381119,153.992065 
	C77.307549,154.968445 72.629349,149.490005 67.271461,145.650543 
	C64.605988,143.740463 62.392460,141.199738 59.974483,138.944290 
	C62.473763,136.437424 64.973045,133.930557 67.737114,131.231506 
	C68.779808,130.701218 69.557716,130.363083 70.651360,129.972427 
z"/>
<path fill="#5894C6" opacity="1.000000" stroke="none" 
	d="
M113.066086,192.627487 
	C110.173584,193.622314 107.476784,194.321655 104.351746,194.650391 
	C101.236176,190.114960 102.200165,185.926727 103.652122,181.630798 
	C104.366989,179.515701 104.566399,177.226379 105.323013,175.143860 
	C109.098541,176.846207 112.550133,178.420609 116.227036,180.260254 
	C119.650276,182.106171 122.848213,183.686829 126.046150,185.267502 
	C126.046150,185.267502 126.111031,185.630936 126.152359,185.811401 
	C121.883049,188.105255 117.572418,190.218628 113.066086,192.627487 
z"/>
<path fill="#6E7AC6" opacity="1.000000" stroke="none" 
	d="
M169.968521,133.011612 
	C175.200592,132.703384 180.743454,134.174484 185.684479,130.159195 
	C186.778976,130.319122 187.545792,130.643723 188.622955,130.999161 
	C191.495743,133.507401 194.058182,135.984818 196.647614,139.045074 
	C189.242966,143.068253 181.822067,146.532211 174.362228,149.910202 
	C173.661728,150.227402 172.715790,150.002533 171.661591,149.843536 
	C171.274582,149.104294 171.109802,148.550827 170.961914,147.565735 
	C170.642044,142.426605 170.305283,137.719116 169.968521,133.011612 
z"/>
<path fill="#549FC5" opacity="1.000000" stroke="none" 
	d="
M165.890411,96.628998 
	C159.345474,97.803741 152.830582,98.612442 145.789902,99.696259 
	C142.750793,98.397568 140.286713,96.737061 137.710464,95.274071 
	C135.065445,93.772026 132.310806,92.463005 129.375168,91.030991 
	C129.146194,90.992462 128.771637,90.717926 128.820312,90.298454 
	C128.812805,87.908653 128.756638,85.938332 128.798035,83.723190 
	C128.962753,83.315994 129.029922,83.153625 129.361298,83.215027 
	C131.239487,87.014328 133.823135,88.472946 137.882309,88.063583 
	C146.554001,87.189041 155.261063,86.665222 163.953644,85.997726 
	C164.299545,87.743134 164.645432,89.488548 165.022095,91.617371 
	C165.342056,93.421501 165.631256,94.842224 165.890411,96.628998 
z"/>
<path fill="#6867B9" opacity="1.000000" stroke="none" 
	d="
M165.336060,200.039948 
	C164.981247,199.486877 165.138351,198.886581 164.916000,198.510712 
	C158.908646,188.354935 161.611008,178.744125 166.656067,169.253662 
	C166.765213,169.048355 166.517044,168.653122 166.337387,167.872650 
	C167.144058,166.316650 168.048904,165.234497 169.304153,164.052246 
	C170.235382,163.607300 170.816193,163.262451 171.453079,162.892120 
	C171.509155,162.866623 171.631149,162.849350 171.987152,162.911743 
	C174.229614,164.644913 176.116104,166.315674 178.001770,168.394928 
	C177.423569,171.014709 177.162949,173.373779 176.212540,175.411072 
	C172.609207,183.135178 170.139404,190.884827 173.600784,199.379486 
	C173.878067,200.059982 173.224197,201.119904 172.652344,201.968536 
	C171.171585,201.636307 170.041534,201.339020 168.911469,201.041748 
	C167.831360,200.726929 166.751251,200.412109 165.336060,200.039948 
z"/>
<path fill="#6B62B5" opacity="1.000000" stroke="none" 
	d="
M173.003052,202.003494 
	C173.224197,201.119904 173.878067,200.059982 173.600784,199.379486 
	C170.139404,190.884827 172.609207,183.135178 176.212540,175.411072 
	C177.162949,173.373779 177.423569,171.014709 178.320435,168.423676 
	C179.427505,168.359390 180.215088,168.674820 181.312195,169.131439 
	C183.752213,170.834808 185.882736,172.396973 187.971817,174.329315 
	C182.497238,184.117065 181.943130,194.651108 180.976135,205.090668 
	C178.917496,204.715286 176.858856,204.339905 174.403015,203.955383 
	C173.690659,203.832886 173.434067,203.641113 173.121490,202.920761 
	C173.006912,202.470535 173.003052,202.003494 173.003052,202.003494 
z"/>
<path fill="#676DBB" opacity="1.000000" stroke="none" 
	d="
M172.652344,201.968536 
	C173.003052,202.003494 173.006912,202.470535 173.012085,202.703369 
	C171.709747,202.539444 170.402237,202.142685 169.003098,201.393829 
	C170.041534,201.339020 171.171585,201.636307 172.652344,201.968536 
z"/>
<path fill="#E96749" opacity="1.000000" stroke="none" 
	d="
M108.022728,102.079643 
	C102.655045,101.386566 97.287354,100.693481 91.457138,100.000351 
	C90.991142,99.249809 90.987686,98.499321 90.974213,97.373650 
	C91.452942,94.500282 91.941696,92.002090 93.158142,89.250519 
	C103.002312,88.922691 111.809639,90.439148 120.012398,94.379990 
	C118.513092,95.750641 117.199692,96.851448 115.575607,98.089172 
	C112.850861,99.510597 110.436790,100.795120 108.022728,102.079643 
z"/>
<path fill="#EA7142" opacity="1.000000" stroke="none" 
	d="
M128.700455,83.968002 
	C128.756638,85.938332 128.812805,87.908653 128.628494,90.364922 
	C128.177307,91.064064 127.925819,91.137276 127.232956,91.054321 
	C125.585693,91.440186 124.338997,91.842216 122.915840,91.944000 
	C120.985588,90.411514 118.984428,89.418831 117.519859,87.906502 
	C110.294502,80.445541 101.978844,80.470123 93.054436,83.998466 
	C93.043839,83.831520 93.033234,83.664574 93.002808,83.247437 
	C93.432083,81.441872 93.881180,79.886505 95.021172,78.318802 
	C102.806618,78.204552 109.901169,78.102623 117.376213,78.047012 
	C121.051704,80.708992 126.692940,78.953918 128.700455,83.968002 
z"/>
<path fill="#EC6E43" opacity="1.000000" stroke="none" 
	d="
M93.031601,84.414268 
	C101.978844,80.470123 110.294502,80.445541 117.519859,87.906502 
	C118.984428,89.418831 120.985588,90.411514 122.750847,92.190460 
	C121.907646,93.194824 121.052979,93.652489 120.198303,94.110153 
	C111.809639,90.439148 103.002312,88.922691 93.428970,88.993317 
	C92.984329,87.603027 92.996544,86.216545 93.031601,84.414268 
z"/>
<path fill="#3D5E98" opacity="1.000000" stroke="none" 
	d="
M126.372162,185.221909 
	C122.848213,183.686829 119.650276,182.106171 116.217766,179.848785 
	C116.325409,174.210251 116.667625,169.248459 117.457222,164.204971 
	C120.939598,164.162537 123.974586,164.201782 127.305618,164.475891 
	C129.402176,164.819962 131.202698,164.929169 132.996307,165.412384 
	C132.385910,167.282349 131.966507,168.889084 131.145309,170.254089 
	C128.389053,174.835617 126.545837,179.558441 128.004501,185.013580 
	C127.569061,185.067825 127.133614,185.122070 126.372162,185.221909 
z"/>
<path fill="#3F5494" opacity="1.000000" stroke="none" 
	d="
M128.330307,185.057434 
	C126.545837,179.558441 128.389053,174.835617 131.145309,170.254089 
	C131.966507,168.889084 132.385910,167.282349 133.419861,165.400482 
	C136.230942,164.758743 138.611542,164.502899 141.391998,164.188812 
	C142.862198,164.194794 143.932526,164.259033 145.003296,164.710175 
	C144.517380,166.988770 143.858032,168.856232 143.588318,170.778351 
	C143.247894,173.204300 143.225296,175.674866 143.065582,178.126175 
	C142.142471,178.907394 141.219360,179.688614 140.114136,180.716461 
	C136.742249,182.163025 133.552444,183.362930 130.165283,184.868561 
	C129.530640,185.149948 129.093384,185.125610 128.330307,185.057434 
z"/>
<path fill="#D7375D" opacity="1.000000" stroke="none" 
	d="
M59.685928,139.095123 
	C62.392460,141.199738 64.605988,143.740463 67.271461,145.650543 
	C72.629349,149.490005 77.307549,154.968445 85.280624,154.355927 
	C85.379311,156.483383 85.161438,158.249481 84.599564,160.169983 
	C74.584145,161.006226 66.715492,156.741974 59.578873,150.935165 
	C57.332069,149.107025 55.841549,146.349380 54.004890,144.017166 
	C54.660126,143.262558 55.315353,142.507950 56.024849,141.455841 
	C57.185204,140.520874 58.291290,139.883423 59.685928,139.095123 
z"/>
<path fill="#705EB2" opacity="1.000000" stroke="none" 
	d="
M181.212952,205.347717 
	C181.943130,194.651108 182.497238,184.117065 188.323257,174.375275 
	C190.472977,174.709213 192.229828,175.367371 193.986679,176.025513 
	C194.555222,176.519745 195.123749,177.013962 195.847992,177.748978 
	C195.476486,180.042297 195.350266,182.318558 194.351669,184.107986 
	C190.342987,191.291412 189.616699,199.163376 189.001007,207.527313 
	C186.484070,207.175629 183.966919,206.390198 181.212952,205.347717 
z"/>
<path fill="#7774C8" opacity="1.000000" stroke="none" 
	d="
M181.002670,168.990234 
	C180.215088,168.674820 179.427505,168.359390 178.321259,168.015198 
	C176.116104,166.315674 174.229614,164.644913 172.135162,162.482620 
	C171.912720,158.003845 171.898254,154.016586 171.883804,150.029327 
	C172.715790,150.002533 173.661728,150.227402 174.362228,149.910202 
	C181.822067,146.532211 189.242966,143.068253 196.837891,139.313599 
	C198.441315,139.986771 199.881409,140.974258 201.649567,142.014130 
	C204.242188,144.498611 206.506744,146.930664 208.613770,149.810364 
	C204.815140,152.169189 201.214233,154.162247 197.524078,155.973419 
	C191.076157,159.138138 183.804123,161.212799 181.002670,168.990234 
z"/>
<path fill="#F39E2F" opacity="1.000000" stroke="none" 
	d="
M126.644440,35.003933 
	C126.977539,36.393768 126.981354,37.780842 126.597549,39.628944 
	C121.473488,41.060135 116.737045,42.030296 111.589256,43.000275 
	C108.097610,42.328609 105.017319,41.657135 101.937027,40.985657 
	C102.510048,38.548645 103.083069,36.111637 103.805458,33.334187 
	C109.488739,33.769325 115.018478,34.577076 120.559776,35.295624 
	C121.793457,35.455597 123.067841,35.301624 124.660271,35.143887 
	C125.436424,34.997440 125.875793,34.999306 126.644440,35.003933 
z"/>
<path fill="#569DC6" opacity="1.000000" stroke="none" 
	d="
M104.999062,175.015900 
	C104.566399,177.226379 104.366989,179.515701 103.652122,181.630798 
	C102.200165,185.926727 101.236176,190.114960 103.966766,194.662720 
	C102.777359,195.846970 101.544708,196.648270 100.111938,197.700653 
	C98.194527,198.292694 96.477219,198.633667 94.369896,198.565002 
	C93.931870,194.420837 93.471924,190.634460 93.933517,186.963989 
	C94.606880,181.609543 95.942680,176.338379 97.321938,171.029892 
	C98.081116,171.049210 98.514442,171.070358 99.015411,171.427658 
	C101.055069,172.847839 103.027069,173.931870 104.999062,175.015900 
z"/>
<path fill="#55A3C6" opacity="1.000000" stroke="none" 
	d="
M96.996078,171.031723 
	C95.942680,176.338379 94.606880,181.609543 93.933517,186.963989 
	C93.471924,190.634460 93.931870,194.420837 93.988297,198.570953 
	C91.253525,199.983780 88.510330,200.981049 85.383316,201.517975 
	C83.922600,188.981705 89.168694,176.889343 84.986755,164.632156 
	C85.231155,164.204437 85.452545,164.049530 86.113274,164.010010 
	C86.996574,164.112152 87.498817,164.182236 88.006104,164.442047 
	C88.011139,164.631760 88.018600,165.012131 87.849869,165.151474 
	C88.110062,165.543015 88.538986,165.795197 89.152206,166.277191 
	C89.893883,166.664230 90.451263,166.821472 91.152618,167.279144 
	C93.196434,168.730270 95.096252,169.880997 96.996078,171.031723 
z"/>
<path fill="#52A9C5" opacity="1.000000" stroke="none" 
	d="
M84.905457,164.821671 
	C89.168694,176.889343 83.922600,188.981705 84.998657,201.521851 
	C84.713242,202.467682 84.428680,202.949326 84.006561,203.675629 
	C82.837692,203.937103 81.806358,203.953873 80.341042,203.583801 
	C79.271408,200.669052 78.228111,198.165756 78.073898,195.608826 
	C77.537453,186.714142 77.309166,177.800858 77.021248,168.693817 
	C77.078804,168.492996 77.163712,168.083633 77.511078,168.034515 
	C80.207451,166.930817 82.556458,165.876236 84.905457,164.821671 
z"/>
<path fill="#4EA8C3" opacity="1.000000" stroke="none" 
	d="
M163.964844,85.582603 
	C155.261063,86.665222 146.554001,87.189041 137.882309,88.063583 
	C133.823135,88.472946 131.239487,87.014328 129.276566,82.772163 
	C128.968887,79.401978 129.010193,76.698441 129.408569,74.040283 
	C132.308670,75.498077 133.583527,78.830139 137.619995,78.004738 
	C145.663727,76.359894 153.826920,75.299217 161.940765,73.997238 
	C162.426758,76.169182 162.912766,78.341125 163.655945,80.765167 
	C163.934097,82.400665 163.955063,83.784065 163.964844,85.582603 
z"/>
<path fill="#51B0C6" opacity="1.000000" stroke="none" 
	d="
M76.963699,168.894653 
	C77.309166,177.800858 77.537453,186.714142 78.073898,195.608826 
	C78.228111,198.165756 79.271408,200.669052 79.951767,203.579773 
	C77.272766,204.665985 74.549042,205.369339 71.416595,205.618835 
	C71.345512,195.833694 71.709763,186.503220 71.997414,177.170380 
	C72.052193,175.393234 71.804092,173.606766 71.911842,171.560760 
	C73.739861,170.496170 75.351784,169.695404 76.963699,168.894653 
z"/>
<path fill="#50B7C7" opacity="1.000000" stroke="none" 
	d="
M71.695740,171.824600 
	C71.804092,173.606766 72.052193,175.393234 71.997414,177.170380 
	C71.709763,186.503220 71.345512,195.833694 71.016975,205.629623 
	C69.247429,207.035889 67.468765,207.977524 65.339218,208.980072 
	C64.988327,209.041000 64.494270,209.012299 64.138374,208.786728 
	C63.582546,208.288040 63.321175,208.100586 63.044231,207.612015 
	C65.698685,197.318817 69.391014,187.552551 67.129791,176.695602 
	C67.480286,175.554428 67.700592,174.717056 67.950089,173.909332 
	C67.979271,173.938980 67.896912,173.950867 68.123459,173.878723 
	C68.642311,173.651398 68.850922,173.420563 69.181320,172.966507 
	C69.566025,172.539627 69.745262,172.260361 70.219421,171.943909 
	C70.908150,171.879349 71.301941,171.851974 71.695740,171.824600 
z"/>
<path fill="#D03B66" opacity="1.000000" stroke="none" 
	d="
M84.986755,164.632156 
	C82.556458,165.876236 80.207451,166.930817 77.123383,167.970276 
	C64.601402,165.223984 54.586830,159.592300 46.995506,149.994873 
	C49.124302,148.080307 51.253101,146.165741 53.693398,144.134171 
	C55.841549,146.349380 57.332069,149.107025 59.578873,150.935165 
	C66.715492,156.741974 74.584145,161.006226 84.934761,160.215027 
	C85.833122,160.157120 86.052299,160.208572 86.267426,160.638000 
	C86.086327,162.003326 85.909271,162.990631 85.732224,163.977951 
	C85.452545,164.049530 85.231155,164.204437 84.986755,164.632156 
z"/>
<path fill="#CA3D6C" opacity="1.000000" stroke="none" 
	d="
M46.691879,150.008026 
	C54.586830,159.592300 64.601402,165.223984 76.776009,168.019409 
	C77.163712,168.083633 77.078804,168.492996 77.021255,168.693817 
	C75.351784,169.695404 73.739861,170.496170 71.911842,171.560760 
	C71.301941,171.851974 70.908150,171.879349 69.846024,171.900009 
	C66.060654,170.874237 62.797764,170.164108 59.855526,168.774872 
	C52.694363,165.393585 46.378841,160.858505 42.011238,154.033798 
	C42.948711,152.895248 43.886185,151.756714 45.002129,150.352448 
	C45.583149,150.064865 45.985703,150.043030 46.691879,150.008026 
z"/>
<path fill="#EF773F" opacity="1.000000" stroke="none" 
	d="
M116.995728,78.000687 
	C109.901169,78.102623 102.806618,78.204552 95.329475,78.136108 
	C94.971634,75.608711 94.996376,73.251678 95.020935,70.452393 
	C95.020767,70.010139 95.504982,69.997574 96.162262,70.050476 
	C102.879181,70.735786 108.938812,71.368202 115.034073,72.353767 
	C115.711708,74.471512 116.353722,76.236099 116.995728,78.000687 
z"/>
<path fill="#806FCA" opacity="1.000000" stroke="none" 
	d="
M181.312195,169.131439 
	C183.804123,161.212799 191.076157,159.138138 197.524078,155.973419 
	C201.214233,154.162247 204.815140,152.169189 208.773254,150.102722 
	C210.861908,151.201675 212.633560,152.455902 214.701889,153.856750 
	C216.592026,155.795990 218.185486,157.588593 219.948715,159.663727 
	C213.264206,162.877289 206.260574,165.515625 199.635834,168.896454 
	C197.284409,170.096466 195.854813,173.102798 193.995544,175.655029 
	C192.229828,175.367371 190.472977,174.709213 188.364685,174.005112 
	C185.882736,172.396973 183.752213,170.834808 181.312195,169.131439 
z"/>
<path fill="#B14483" opacity="1.000000" stroke="none" 
	d="
M44.889809,186.936523 
	C44.484367,186.981079 44.078934,187.025635 43.368950,187.104553 
	C40.709129,185.801285 38.480862,184.117950 35.972698,183.196442 
	C30.387499,181.144485 25.347431,178.646973 23.081648,172.211212 
	C25.068108,169.968536 27.200436,168.054718 29.683371,166.351532 
	C33.147068,172.672424 37.705948,177.153824 44.197880,179.689270 
	C46.290550,180.506561 48.110798,182.021408 49.876373,183.486328 
	C48.094650,184.815857 46.492229,185.876190 44.889809,186.936523 
z"/>
<path fill="#48B2C0" opacity="1.000000" stroke="none" 
	d="
M161.953796,73.598885 
	C153.826920,75.299217 145.663727,76.359894 137.619995,78.004738 
	C133.583527,78.830139 132.308670,75.498077 129.299011,73.787720 
	C128.758942,73.321541 128.685501,73.153313 128.711060,72.619492 
	C128.892151,71.501762 128.974243,70.749626 129.294769,69.807220 
	C129.365997,68.744568 129.198776,67.872208 128.844360,66.667137 
	C128.558731,63.506245 128.460297,60.678051 128.361847,57.849861 
	C128.468781,55.833389 128.575699,53.816914 129.087738,51.639915 
	C129.663986,53.279819 129.848114,55.079124 130.003571,56.880905 
	C130.329605,60.659618 133.848175,64.221863 136.947296,63.830780 
	C144.312744,62.901337 151.673782,61.936886 159.036591,60.986576 
	C159.354675,61.095325 159.606552,61.289799 159.901306,61.786469 
	C160.476425,64.501274 160.942459,66.999603 161.669022,69.755539 
	C161.941971,71.075615 161.954407,72.138069 161.953796,73.598885 
z"/>
<path fill="#F07F3B" opacity="1.000000" stroke="none" 
	d="
M114.998451,72.000610 
	C108.938812,71.368202 102.879181,70.735786 96.404449,70.048508 
	C96.325722,67.600487 96.662094,65.207329 97.439255,62.407112 
	C99.587158,61.999889 101.294273,61.999729 103.246384,62.277180 
	C108.327187,64.702591 113.163002,66.850388 117.864258,69.279861 
	C116.819298,70.374573 115.908875,71.187592 114.998451,72.000610 
z"/>
<path fill="#F18D38" opacity="1.000000" stroke="none" 
	d="
M103.001381,61.999573 
	C101.294273,61.999729 99.587158,61.999889 97.454926,62.000225 
	C97.023567,61.249710 97.017319,60.499027 97.006851,59.372890 
	C97.660843,56.593414 98.319061,54.189384 99.446411,51.392738 
	C102.610832,51.000362 105.306099,51.000610 108.037155,51.350212 
	C109.049240,53.798382 110.025536,55.897194 110.619019,58.003555 
	C107.824608,59.340588 105.412994,60.670078 103.001381,61.999573 
z"/>
<path fill="#C24073" opacity="1.000000" stroke="none" 
	d="
M41.710548,154.168640 
	C46.378841,160.858505 52.694363,165.393585 59.855526,168.774872 
	C62.797764,170.164108 66.060654,170.874237 69.551102,171.937180 
	C69.745262,172.260361 69.566025,172.539627 68.921997,172.974396 
	C68.270439,173.403549 68.083672,173.677200 67.896912,173.950867 
	C67.896912,173.950867 67.979271,173.938980 67.614845,173.960526 
	C65.792847,174.951935 64.335274,175.921814 62.868011,176.874084 
	C62.858322,176.856476 62.825199,176.831985 62.489586,176.873169 
	C61.111008,177.281799 60.068039,177.649246 58.712334,177.860535 
	C57.296604,176.992691 56.281284,176.024384 55.075851,175.612534 
	C48.987438,173.532364 43.893902,170.411331 40.543388,164.555161 
	C39.564888,162.844894 36.839954,162.133820 34.915520,160.964752 
	C37.080299,158.744324 39.245079,156.523911 41.710548,154.168640 
z"/>
<path fill="#B9427B" opacity="1.000000" stroke="none" 
	d="
M34.607994,161.004761 
	C36.839954,162.133820 39.564888,162.844894 40.543388,164.555161 
	C43.893902,170.411331 48.987438,173.532364 55.075851,175.612534 
	C56.281284,176.024384 57.296604,176.992691 58.577141,178.131500 
	C58.170036,179.351501 57.585388,180.144379 56.626198,180.912628 
	C54.186329,181.664383 52.121002,182.440765 50.055672,183.217133 
	C48.110798,182.021408 46.290550,180.506561 44.197880,179.689270 
	C37.705948,177.153824 33.147068,172.672424 29.982370,166.195496 
	C30.608278,164.795471 31.285795,163.762100 32.011414,162.423035 
	C32.806499,161.759811 33.553482,161.402283 34.607994,161.004761 
z"/>
<path fill="#42BDBB" opacity="1.000000" stroke="none" 
	d="
M159.031403,60.559841 
	C151.673782,61.936886 144.312744,62.901337 136.947296,63.830780 
	C133.848175,64.221863 130.329605,60.659618 130.003571,56.880905 
	C129.848114,55.079124 129.663986,53.279819 129.183197,51.211411 
	C128.793808,47.248222 128.714050,43.553017 128.733002,39.400154 
	C129.963425,41.766247 130.847778,44.730492 132.336456,47.351486 
	C133.028519,48.569950 134.816193,49.669853 136.242722,49.873257 
	C140.573364,50.490765 144.966248,50.808262 149.342712,50.911987 
	C151.620789,50.965981 153.915359,50.324299 156.628677,49.989532 
	C157.367874,50.098007 157.617630,50.294285 157.915527,50.785934 
	C158.360016,54.044918 158.693100,57.089012 159.031403,60.559841 
z"/>
<path fill="#F29635" opacity="1.000000" stroke="none" 
	d="
M108.001373,51.000858 
	C105.306099,51.000610 102.610832,51.000362 99.467773,51.000355 
	C99.028275,49.620831 99.036560,48.241070 99.058372,46.449074 
	C99.853897,44.516457 100.635902,42.996075 101.677467,41.230675 
	C105.017319,41.657135 108.097610,42.328609 111.624100,43.353561 
	C112.713432,45.472626 113.356567,47.238220 113.753815,49.278286 
	C111.672417,50.035458 109.836899,50.518158 108.001373,51.000858 
z"/>
<path fill="#4EC3C4" opacity="1.000000" stroke="none" 
	d="
M49.876373,183.486328 
	C52.121002,182.440765 54.186329,181.664383 56.626030,181.362030 
	C57.629581,188.668777 58.470264,195.432251 55.944885,202.203003 
	C54.928623,204.927643 55.327705,208.180191 55.082634,211.192474 
	C53.328003,211.828812 51.573368,212.465134 49.441628,213.124756 
	C49.179016,208.511688 49.460926,203.871399 49.353294,199.240173 
	C49.272041,195.743912 48.828934,192.235306 48.224342,188.788773 
	C48.097340,188.064774 46.561413,187.587952 45.282257,186.966873 
	C46.492229,185.876190 48.094650,184.815857 49.876373,183.486328 
z"/>
<path fill="#4FBEC6" opacity="1.000000" stroke="none" 
	d="
M55.481586,211.157928 
	C55.327705,208.180191 54.928623,204.927643 55.944885,202.203003 
	C58.470264,195.432251 57.629581,188.668777 57.000576,181.386642 
	C57.585388,180.144379 58.170036,179.351501 58.889877,178.287659 
	C60.068039,177.649246 61.111008,177.281799 62.540291,177.262482 
	C62.030937,180.520813 59.680302,183.972046 60.522217,186.236115 
	C62.730232,192.173874 61.541828,197.644989 60.347969,203.286453 
	C59.825047,205.757477 59.971363,207.629715 62.998367,207.998779 
	C63.321175,208.100586 63.582546,208.288040 63.891010,208.780273 
	C61.293209,209.707382 58.586876,210.415390 55.481586,211.157928 
z"/>
<path fill="#EB8F36" opacity="1.000000" stroke="none" 
	d="
M108.037155,51.350212 
	C109.836899,50.518158 111.672417,50.035458 114.139633,49.322445 
	C118.835213,49.400410 122.899101,49.708687 126.962982,50.016968 
	C127.213028,52.548992 127.463074,55.081017 128.037476,57.731453 
	C128.460297,60.678051 128.558731,63.506245 128.769470,67.038574 
	C128.939941,68.494308 128.998138,69.245903 129.056335,69.997498 
	C128.974243,70.749626 128.892151,71.501762 128.371674,72.507805 
	C127.620773,70.839165 127.308258,68.916618 127.001343,66.565323 
	C126.281883,64.435165 125.931709,61.623295 124.765205,61.229473 
	C120.320160,59.728813 115.611809,59.008121 111.001831,57.996010 
	C110.025536,55.897194 109.049240,53.798382 108.037155,51.350212 
z"/>
<path fill="#F4962D" opacity="1.000000" stroke="none" 
	d="
M126.977005,49.561272 
	C122.899101,49.708687 118.835213,49.400410 114.385513,49.047974 
	C113.356567,47.238220 112.713432,45.472626 112.035461,43.353745 
	C116.737045,42.030296 121.473488,41.060135 126.591324,40.045197 
	C126.978821,43.035469 126.984917,46.070518 126.977005,49.561272 
z"/>
<path fill="#3F6BA2" opacity="1.000000" stroke="none" 
	d="
M160.881439,111.682480 
	C155.715317,113.483040 150.387299,114.986389 144.686584,116.679657 
	C142.839127,113.991074 141.364349,111.112556 140.125671,107.922699 
	C143.257370,106.370033 146.152985,105.128731 149.048599,103.887436 
	C152.938904,106.386719 156.829224,108.886002 160.881439,111.682480 
z"/>
<path fill="#3F74A1" opacity="1.000000" stroke="none" 
	d="
M148.901260,103.618759 
	C146.152985,105.128731 143.257370,106.370033 139.813599,107.768082 
	C136.045013,102.306381 132.824570,96.687950 129.604141,91.069511 
	C132.310806,92.463005 135.065445,93.772026 137.710464,95.274071 
	C140.286713,96.737061 142.750793,98.397568 145.612793,100.039780 
	C146.892288,101.188828 147.823105,102.269455 148.901260,103.618759 
z"/>
<path fill="#FDFDFD" opacity="1.000000" stroke="none" 
	d="
M129.375168,91.030991 
	C132.824570,96.687950 136.045013,102.306381 139.577499,108.079437 
	C141.364349,111.112556 142.839127,113.991074 144.592926,117.078354 
	C145.824600,119.043747 146.777267,120.800369 148.050873,123.111908 
	C149.907761,126.113571 151.443710,128.560318 153.040894,131.353683 
	C156.138657,136.786530 159.175171,141.872757 162.289886,147.290009 
	C165.377747,152.719879 168.387375,157.818741 171.397003,162.917603 
	C170.816193,163.262451 170.235382,163.607300 168.841125,164.002350 
	C160.352737,164.142807 152.677811,164.233047 145.002869,164.323288 
	C143.932526,164.259033 142.862198,164.194794 140.936935,164.091614 
	C135.724533,164.115448 131.367065,164.178238 127.009583,164.241028 
	C123.974586,164.201782 120.939598,164.162537 117.018768,164.114594 
	C113.750984,164.160263 111.369019,164.214600 108.526337,164.184753 
	C101.726624,164.173050 95.387642,164.245529 88.791016,164.233093 
	C88.355934,164.182877 88.178505,164.217590 88.001068,164.252319 
	C87.498817,164.182236 86.996574,164.112152 86.113274,164.010010 
	C85.909271,162.990631 86.086327,162.003326 86.612190,160.577850 
	C90.292351,154.398804 93.623688,148.657928 97.220734,142.705658 
	C99.102592,139.574768 100.718735,136.655258 102.334869,133.735748 
	C106.006920,127.458282 109.678970,121.180817 113.646957,114.319260 
	C116.098923,110.214668 118.254944,106.694183 120.644867,102.937607 
	C123.130356,98.824509 125.381950,94.947502 127.633545,91.070496 
	C127.925819,91.137276 128.177307,91.064064 128.579819,90.784393 
	C128.771637,90.717926 129.146194,90.992462 129.375168,91.030991 
z"/>
<path fill="#44599F" opacity="1.000000" stroke="none" 
	d="
M152.979645,131.007080 
	C151.443710,128.560318 149.907761,126.113571 148.305145,123.338196 
	C154.828857,123.341118 161.419235,123.672661 168.424377,124.007919 
	C168.911514,126.686203 168.983871,129.360779 168.805389,132.772095 
	C163.362900,132.674927 158.171280,131.841003 152.979645,131.007080 
z"/>
<path fill="#48529C" opacity="1.000000" stroke="none" 
	d="
M153.040894,131.353683 
	C158.171280,131.841003 163.362900,132.674927 168.800720,133.217224 
	C169.046921,132.925583 169.507263,132.976898 169.737885,132.994263 
	C170.305283,137.719116 170.642044,142.426605 170.591537,147.560455 
	C167.540070,147.644180 164.875885,147.301590 162.211685,146.958984 
	C159.175171,141.872757 156.138657,136.786530 153.040894,131.353683 
z"/>
<path fill="#3F4C92" opacity="1.000000" stroke="none" 
	d="
M145.003296,164.710175 
	C152.677811,164.233047 160.352737,164.142807 168.490707,164.102463 
	C168.048904,165.234497 167.144058,166.316650 166.078217,167.678436 
	C162.081268,169.775421 158.245300,171.592773 154.199524,173.675476 
	C150.594223,175.310165 147.198730,176.679504 143.434418,178.087509 
	C143.225296,175.674866 143.247894,173.204300 143.588318,170.778351 
	C143.858032,168.856232 144.517380,166.988770 145.003296,164.710175 
z"/>
<path fill="#993F3E" opacity="1.000000" stroke="none" 
	d="
M120.410973,103.173691 
	C118.254944,106.694183 116.098923,110.214668 113.686661,113.950348 
	C109.040527,108.985168 103.480019,109.573219 97.317551,110.968353 
	C100.487259,108.188469 104.091965,105.424194 107.859695,102.369781 
	C110.436790,100.795120 112.850861,99.510597 115.972687,98.106445 
	C118.989861,97.918610 120.575005,98.375092 119.489624,101.299362 
	C119.322998,101.748299 120.080742,102.540329 120.410973,103.173691 
z"/>
<path fill="#993447" opacity="1.000000" stroke="none" 
	d="
M102.222626,133.314575 
	C100.718735,136.655258 99.102592,139.574768 96.942139,142.433563 
	C93.263908,142.580887 90.129990,142.788925 86.996071,142.996979 
	C86.971825,142.826828 86.947578,142.656662 86.861313,142.235626 
	C87.083206,138.573105 87.367126,135.161484 87.808472,131.372955 
	C92.001022,131.012070 96.040207,130.940140 100.067413,131.126831 
	C100.774178,131.159592 101.430672,132.276962 102.222626,133.314575 
z"/>
<path fill="#912C46" opacity="1.000000" stroke="none" 
	d="
M86.969170,143.410309 
	C90.129990,142.788925 93.263908,142.580887 96.676422,142.644943 
	C93.623688,148.657928 90.292351,154.398804 86.616241,160.199860 
	C86.052299,160.208572 85.833122,160.157120 85.278748,160.060638 
	C85.161438,158.249481 85.379311,156.483383 85.697685,154.353424 
	C86.179550,150.600922 86.560905,147.212265 86.969170,143.410309 
z"/>
<path fill="#3E689E" opacity="1.000000" stroke="none" 
	d="
M108.987061,164.268936 
	C111.369019,164.214600 113.750984,164.160263 116.571396,164.196289 
	C116.667625,169.248459 116.325409,174.210251 115.992462,179.583527 
	C112.550133,178.420609 109.098541,176.846207 105.323013,175.143860 
	C103.027069,173.931870 101.055069,172.847839 98.998955,171.051956 
	C98.607155,168.896439 98.299469,167.452805 98.446213,166.005234 
	C102.262787,165.423859 105.624924,164.846390 108.987061,164.268936 
z"/>
<path fill="#4C4C9D" opacity="1.000000" stroke="none" 
	d="
M162.289886,147.290009 
	C164.875885,147.301590 167.540070,147.644180 170.574646,147.992065 
	C171.109802,148.550827 171.274582,149.104294 171.661591,149.843536 
	C171.898254,154.016586 171.912720,158.003845 171.779160,162.420227 
	C171.631149,162.849350 171.509155,162.866623 171.453079,162.892120 
	C168.387375,157.818741 165.377747,152.719879 162.289886,147.290009 
z"/>
<path fill="#F47635" opacity="1.000000" stroke="none" 
	d="
M126.995743,66.994064 
	C127.308258,68.916618 127.620773,70.839165 128.272675,72.873398 
	C128.685501,73.153313 128.758942,73.321541 128.941925,73.742332 
	C129.010193,76.698441 128.968887,79.401978 129.012329,82.548386 
	C129.029922,83.153625 128.962753,83.315994 128.798035,83.723190 
	C126.692940,78.953918 121.051704,80.708992 117.376213,78.047012 
	C116.353722,76.236099 115.711708,74.471512 115.034073,72.353767 
	C115.908875,71.187592 116.819298,70.374573 118.268570,69.280441 
	C121.536865,68.330917 124.266304,67.662491 126.995743,66.994064 
z"/>
<path fill="#9B4238" opacity="1.000000" stroke="none" 
	d="
M120.644867,102.937607 
	C120.080742,102.540329 119.322998,101.748299 119.489624,101.299362 
	C120.575005,98.375092 118.989861,97.918610 116.283363,97.969528 
	C117.199692,96.851448 118.513092,95.750641 120.012398,94.379990 
	C121.052979,93.652489 121.907646,93.194824 122.927315,92.490707 
	C124.338997,91.842216 125.585693,91.440186 127.232964,91.054321 
	C125.381950,94.947502 123.130356,98.824509 120.644867,102.937607 
z"/>
<path fill="#5D759F" opacity="1.000000" stroke="none" 
	d="
M127.305618,164.475891 
	C131.367065,164.178238 135.724533,164.115448 140.537079,164.149872 
	C138.611542,164.502899 136.230942,164.758743 133.426773,165.026489 
	C131.202698,164.929169 129.402176,164.819962 127.305618,164.475891 
z"/>
<path fill="#4074A7" opacity="1.000000" stroke="none" 
	d="
M97.991783,166.009155 
	C98.299469,167.452805 98.607155,168.896439 98.931305,170.715790 
	C98.514442,171.070358 98.081116,171.049210 97.321930,171.029892 
	C95.096252,169.880997 93.196434,168.730270 91.422028,166.995636 
	C93.695557,166.277542 95.843674,166.143341 97.991783,166.009155 
z"/>
<path fill="#3D5E98" opacity="1.000000" stroke="none" 
	d="
M98.446213,166.005234 
	C95.843674,166.143341 93.695557,166.277542 91.278046,166.695221 
	C90.451263,166.821472 89.893883,166.664230 89.169235,166.018433 
	C89.007706,165.357407 89.013443,165.184952 89.033676,164.839172 
	C89.048172,164.665848 89.048660,164.317993 89.048660,164.317993 
	C95.387642,164.245529 101.726624,164.173050 108.526337,164.184753 
	C105.624924,164.846390 102.262787,165.423859 98.446213,166.005234 
z"/>
<path fill="#4074A7" opacity="1.000000" stroke="none" 
	d="
M89.019173,165.012482 
	C89.013443,165.184952 89.007706,165.357407 88.984940,165.788635 
	C88.538986,165.795197 88.110062,165.543015 88.099854,165.148254 
	C88.685440,165.007965 88.852310,165.010223 89.019173,165.012482 
z"/>
<path fill="#5D759F" opacity="1.000000" stroke="none" 
	d="
M89.033676,164.839172 
	C88.852310,165.010223 88.685440,165.007965 88.268585,165.008911 
	C88.018600,165.012131 88.011139,164.631760 88.006104,164.442047 
	C88.178505,164.217590 88.355934,164.182877 88.791016,164.233093 
	C89.048660,164.317993 89.048172,164.665848 89.033676,164.839172 
z"/>
<path fill="#4DBAC5" opacity="1.000000" stroke="none" 
	d="
M63.044231,207.612015 
	C59.971363,207.629715 59.825047,205.757477 60.347969,203.286453 
	C61.541828,197.644989 62.730232,192.173874 60.522217,186.236115 
	C59.680302,183.972046 62.030937,180.520813 62.875900,177.221298 
	C62.825199,176.831985 62.858322,176.856476 63.280853,176.909927 
	C64.802124,176.975388 65.900856,176.987396 66.999596,176.999390 
	C69.391014,187.552551 65.698685,197.318817 63.044231,207.612015 
z"/>
<path fill="#4FBEC6" opacity="1.000000" stroke="none" 
	d="
M67.129791,176.695602 
	C65.900856,176.987396 64.802124,176.975388 63.290543,176.927521 
	C64.335274,175.921814 65.792847,174.951935 67.585663,173.930878 
	C67.700592,174.717056 67.480286,175.554428 67.129791,176.695602 
z"/>
<path fill="#4FBEC6" opacity="1.000000" stroke="none" 
	d="
M68.123459,173.878723 
	C68.083672,173.677200 68.270439,173.403549 68.716522,173.122009 
	C68.850922,173.420563 68.642311,173.651398 68.123459,173.878723 
z"/>
<path fill="#4EA8C3" opacity="1.000000" stroke="none" 
	d="
M129.294769,69.807220 
	C128.998138,69.245903 128.939941,68.494308 128.956665,67.371277 
	C129.198776,67.872208 129.365997,68.744568 129.294769,69.807220 
z"/>
<path fill="#F38434" opacity="1.000000" stroke="none" 
	d="
M127.001343,66.565323 
	C124.266304,67.662491 121.536865,68.330917 118.403122,68.998764 
	C113.163002,66.850388 108.327187,64.702591 103.246384,62.277184 
	C105.412994,60.670078 107.824608,59.340588 110.619019,58.003555 
	C115.611809,59.008121 120.320160,59.728813 124.765205,61.229473 
	C125.931709,61.623295 126.281883,64.435165 127.001343,66.565323 
z"/>
</svg>